<mxfile host="Electron" modified="2023-10-07T13:32:18.441Z" agent="Mozilla/5.0 (X11; Linux x86_64) AppleWebKit/537.36 (KHTML, like Gecko) draw.io/22.0.2 Chrome/114.0.5735.289 Electron/25.8.4 Safari/537.36" etag="aG_28ag6I9F48jsiSy4x" version="22.0.2" type="device">
  <diagram name="Page-1" id="tksFU6S7mk7O2h5PX8Za">
    <mxGraphModel dx="2281" dy="2054" grid="1" gridSize="10" guides="1" tooltips="1" connect="1" arrows="1" fold="1" page="1" pageScale="1" pageWidth="1100" pageHeight="850" math="0" shadow="0">
      <root>
        <mxCell id="0" />
        <mxCell id="1" parent="0" />
        <mxCell id="HBSDMx_5VC7ug6HWO6Sl-1" value="NHAN_VIEN" style="whiteSpace=wrap;html=1;align=center;" parent="1" vertex="1">
          <mxGeometry x="200" y="-405" width="160" height="40" as="geometry" />
        </mxCell>
        <mxCell id="HBSDMx_5VC7ug6HWO6Sl-2" value="LIST_HANG_HOA" style="whiteSpace=wrap;html=1;align=center;" parent="1" vertex="1">
          <mxGeometry x="1080" y="165" width="120" height="40" as="geometry" />
        </mxCell>
        <mxCell id="HBSDMx_5VC7ug6HWO6Sl-4" value="ten_hang_hoa" style="ellipse;whiteSpace=wrap;html=1;align=center;" parent="1" vertex="1">
          <mxGeometry x="1085" y="235" width="100" height="40" as="geometry" />
        </mxCell>
        <mxCell id="HBSDMx_5VC7ug6HWO6Sl-5" value="don_vi_tinh" style="ellipse;whiteSpace=wrap;html=1;align=center;" parent="1" vertex="1">
          <mxGeometry x="170" y="-90" width="100" height="40" as="geometry" />
        </mxCell>
        <mxCell id="HBSDMx_5VC7ug6HWO6Sl-6" value="ma_hang_hoa" style="ellipse;whiteSpace=wrap;html=1;align=center;fontStyle=4" parent="1" vertex="1">
          <mxGeometry x="1090" y="105" width="100" height="40" as="geometry" />
        </mxCell>
        <mxCell id="HBSDMx_5VC7ug6HWO6Sl-8" value="gia_mua" style="ellipse;whiteSpace=wrap;html=1;align=center;" parent="1" vertex="1">
          <mxGeometry x="160" y="105" width="100" height="40" as="geometry" />
        </mxCell>
        <mxCell id="HBSDMx_5VC7ug6HWO6Sl-9" value="gia_ban" style="ellipse;whiteSpace=wrap;html=1;align=center;" parent="1" vertex="1">
          <mxGeometry x="310" y="55" width="100" height="40" as="geometry" />
        </mxCell>
        <mxCell id="HBSDMx_5VC7ug6HWO6Sl-10" value="ngay_mua" style="ellipse;whiteSpace=wrap;html=1;align=center;" parent="1" vertex="1">
          <mxGeometry x="130" y="55" width="100" height="40" as="geometry" />
        </mxCell>
        <mxCell id="HBSDMx_5VC7ug6HWO6Sl-16" value="DON_BAN" style="rounded=1;arcSize=10;whiteSpace=wrap;html=1;align=center;" parent="1" vertex="1">
          <mxGeometry x="970" y="-465" width="100" height="40" as="geometry" />
        </mxCell>
        <mxCell id="HBSDMx_5VC7ug6HWO6Sl-17" value="khach_hang" style="ellipse;whiteSpace=wrap;html=1;align=center;" parent="1" vertex="1">
          <mxGeometry x="860" y="-520" width="100" height="40" as="geometry" />
        </mxCell>
        <mxCell id="HBSDMx_5VC7ug6HWO6Sl-18" value="&amp;nbsp;ngay_mua" style="ellipse;whiteSpace=wrap;html=1;align=center;" parent="1" vertex="1">
          <mxGeometry x="950" y="-565" width="100" height="40" as="geometry" />
        </mxCell>
        <mxCell id="HBSDMx_5VC7ug6HWO6Sl-19" value="gia_tong" style="ellipse;whiteSpace=wrap;html=1;align=center;" parent="1" vertex="1">
          <mxGeometry x="1050" y="-570" width="100" height="40" as="geometry" />
        </mxCell>
        <mxCell id="HBSDMx_5VC7ug6HWO6Sl-20" value="nhan_vien_ghi_don" style="ellipse;whiteSpace=wrap;html=1;align=center;" parent="1" vertex="1">
          <mxGeometry x="1070" y="-525" width="110" height="40" as="geometry" />
        </mxCell>
        <mxCell id="HBSDMx_5VC7ug6HWO6Sl-21" value="DON_MUA_CHI_TIET" style="rounded=1;arcSize=10;whiteSpace=wrap;html=1;align=center;" parent="1" vertex="1">
          <mxGeometry x="1420" y="-250" width="130" height="40" as="geometry" />
        </mxCell>
        <mxCell id="HBSDMx_5VC7ug6HWO6Sl-23" value="gia_ban" style="ellipse;whiteSpace=wrap;html=1;align=center;" parent="1" vertex="1">
          <mxGeometry x="1580" y="-225" width="100" height="40" as="geometry" />
        </mxCell>
        <mxCell id="HBSDMx_5VC7ug6HWO6Sl-26" value="gia_mua" style="ellipse;whiteSpace=wrap;html=1;align=center;" parent="1" vertex="1">
          <mxGeometry x="1590" y="-170" width="100" height="40" as="geometry" />
        </mxCell>
        <mxCell id="HBSDMx_5VC7ug6HWO6Sl-27" value="so_luong" style="ellipse;whiteSpace=wrap;html=1;align=center;" parent="1" vertex="1">
          <mxGeometry x="1590" y="-265" width="100" height="40" as="geometry" />
        </mxCell>
        <mxCell id="HBSDMx_5VC7ug6HWO6Sl-28" value="thanh_tien" style="ellipse;whiteSpace=wrap;html=1;align=center;" parent="1" vertex="1">
          <mxGeometry x="1590" y="-312.5" width="100" height="40" as="geometry" />
        </mxCell>
        <mxCell id="HBSDMx_5VC7ug6HWO6Sl-29" value="ten_nhan_vien" style="ellipse;whiteSpace=wrap;html=1;align=center;" parent="1" vertex="1">
          <mxGeometry x="310" y="-325" width="100" height="40" as="geometry" />
        </mxCell>
        <mxCell id="HBSDMx_5VC7ug6HWO6Sl-30" value="dia_chi" style="ellipse;whiteSpace=wrap;html=1;align=center;" parent="1" vertex="1">
          <mxGeometry x="100" y="-365" width="100" height="40" as="geometry" />
        </mxCell>
        <mxCell id="HBSDMx_5VC7ug6HWO6Sl-31" value="dien_thoai" style="ellipse;whiteSpace=wrap;html=1;align=center;" parent="1" vertex="1">
          <mxGeometry x="210" y="-345" width="100" height="40" as="geometry" />
        </mxCell>
        <mxCell id="HBSDMx_5VC7ug6HWO6Sl-33" value="ten_dang_nhap" style="ellipse;whiteSpace=wrap;html=1;align=center;" parent="1" vertex="1">
          <mxGeometry x="140" y="-790" width="100" height="40" as="geometry" />
        </mxCell>
        <mxCell id="HBSDMx_5VC7ug6HWO6Sl-34" value="mat_khau" style="ellipse;whiteSpace=wrap;html=1;align=center;" parent="1" vertex="1">
          <mxGeometry x="260" y="-780" width="100" height="40" as="geometry" />
        </mxCell>
        <mxCell id="HBSDMx_5VC7ug6HWO6Sl-35" value="DON_MUA" style="whiteSpace=wrap;html=1;align=center;" parent="1" vertex="1">
          <mxGeometry x="970" y="-262.5" width="110" height="40" as="geometry" />
        </mxCell>
        <mxCell id="HBSDMx_5VC7ug6HWO6Sl-36" value="&amp;nbsp;ngay_dat_hang" style="ellipse;whiteSpace=wrap;html=1;align=center;" parent="1" vertex="1">
          <mxGeometry x="970" y="-180" width="100" height="40" as="geometry" />
        </mxCell>
        <mxCell id="HBSDMx_5VC7ug6HWO6Sl-37" value="nha_cung_cap" style="ellipse;whiteSpace=wrap;html=1;align=center;" parent="1" vertex="1">
          <mxGeometry x="860" y="-220" width="100" height="40" as="geometry" />
        </mxCell>
        <mxCell id="HBSDMx_5VC7ug6HWO6Sl-38" value="tong_gia_tien" style="ellipse;whiteSpace=wrap;html=1;align=center;" parent="1" vertex="1">
          <mxGeometry x="1060" y="-160" width="100" height="40" as="geometry" />
        </mxCell>
        <mxCell id="HBSDMx_5VC7ug6HWO6Sl-39" value="DON_BAN_CHI_TIET" style="whiteSpace=wrap;html=1;align=center;" parent="1" vertex="1">
          <mxGeometry x="1410" y="-470" width="140" height="40" as="geometry" />
        </mxCell>
        <mxCell id="HBSDMx_5VC7ug6HWO6Sl-40" value="ma_hang_hoa" style="ellipse;whiteSpace=wrap;html=1;align=center;" parent="1" vertex="1">
          <mxGeometry x="1310" y="-567.5" width="100" height="40" as="geometry" />
        </mxCell>
        <mxCell id="HBSDMx_5VC7ug6HWO6Sl-41" value="gia_mua" style="ellipse;whiteSpace=wrap;html=1;align=center;" parent="1" vertex="1">
          <mxGeometry x="1510" y="-560" width="100" height="40" as="geometry" />
        </mxCell>
        <mxCell id="HBSDMx_5VC7ug6HWO6Sl-42" value="so_luong" style="ellipse;whiteSpace=wrap;html=1;align=center;" parent="1" vertex="1">
          <mxGeometry x="1560" y="-510" width="100" height="40" as="geometry" />
        </mxCell>
        <mxCell id="HBSDMx_5VC7ug6HWO6Sl-43" value="thanh_tien" style="ellipse;whiteSpace=wrap;html=1;align=center;" parent="1" vertex="1">
          <mxGeometry x="1580" y="-445" width="100" height="40" as="geometry" />
        </mxCell>
        <mxCell id="HBSDMx_5VC7ug6HWO6Sl-44" value="NHA_CUNG_CAP" style="whiteSpace=wrap;html=1;align=center;" parent="1" vertex="1">
          <mxGeometry x="580" y="-277.5" width="120" height="40" as="geometry" />
        </mxCell>
        <mxCell id="HBSDMx_5VC7ug6HWO6Sl-45" value="ten_nha_cc" style="ellipse;whiteSpace=wrap;html=1;align=center;" parent="1" vertex="1">
          <mxGeometry x="610" y="-205" width="80" height="40" as="geometry" />
        </mxCell>
        <mxCell id="HBSDMx_5VC7ug6HWO6Sl-46" value="dia_chi" style="ellipse;whiteSpace=wrap;html=1;align=center;" parent="1" vertex="1">
          <mxGeometry x="510" y="-505" width="100" height="40" as="geometry" />
        </mxCell>
        <mxCell id="HBSDMx_5VC7ug6HWO6Sl-47" value="dien_thoai" style="ellipse;whiteSpace=wrap;html=1;align=center;" parent="1" vertex="1">
          <mxGeometry x="490" y="-212.5" width="100" height="40" as="geometry" />
        </mxCell>
        <mxCell id="HBSDMx_5VC7ug6HWO6Sl-48" value="id_nhan_vien" style="ellipse;whiteSpace=wrap;html=1;align=center;fontStyle=4;" parent="1" vertex="1">
          <mxGeometry x="380" y="-490" width="100" height="40" as="geometry" />
        </mxCell>
        <mxCell id="HBSDMx_5VC7ug6HWO6Sl-49" value="BAN_SI" style="whiteSpace=wrap;html=1;align=center;" parent="1" vertex="1">
          <mxGeometry x="250" y="285" width="100" height="40" as="geometry" />
        </mxCell>
        <mxCell id="HBSDMx_5VC7ug6HWO6Sl-52" value="TAI_KHOAN" style="whiteSpace=wrap;html=1;align=center;" parent="1" vertex="1">
          <mxGeometry x="200" y="-720" width="100" height="40" as="geometry" />
        </mxCell>
        <mxCell id="HBSDMx_5VC7ug6HWO6Sl-53" value="duoc_cap_quyen" style="ellipse;whiteSpace=wrap;html=1;align=center;" parent="1" vertex="1">
          <mxGeometry x="80" y="-425" width="100" height="40" as="geometry" />
        </mxCell>
        <mxCell id="HBSDMx_5VC7ug6HWO6Sl-54" value="ngay_ban" style="ellipse;whiteSpace=wrap;html=1;align=center;" parent="1" vertex="1">
          <mxGeometry x="270" y="105" width="100" height="40" as="geometry" />
        </mxCell>
        <mxCell id="HBSDMx_5VC7ug6HWO6Sl-55" value="id_don_ban" style="ellipse;whiteSpace=wrap;html=1;align=center;fontStyle=4;" parent="1" vertex="1">
          <mxGeometry x="850" y="-470" width="100" height="40" as="geometry" />
        </mxCell>
        <mxCell id="HBSDMx_5VC7ug6HWO6Sl-56" value="KHACH_HANG" style="whiteSpace=wrap;html=1;align=center;" parent="1" vertex="1">
          <mxGeometry x="620" y="-490" width="100" height="40" as="geometry" />
        </mxCell>
        <mxCell id="HBSDMx_5VC7ug6HWO6Sl-57" value="id_kh" style="ellipse;whiteSpace=wrap;html=1;align=center;fontStyle=4;" parent="1" vertex="1">
          <mxGeometry x="750" y="-510" width="100" height="40" as="geometry" />
        </mxCell>
        <mxCell id="HBSDMx_5VC7ug6HWO6Sl-58" value="ten_kh" style="ellipse;whiteSpace=wrap;html=1;align=center;" parent="1" vertex="1">
          <mxGeometry x="640" y="-570" width="100" height="40" as="geometry" />
        </mxCell>
        <mxCell id="HBSDMx_5VC7ug6HWO6Sl-59" value="QUAN_LY" style="whiteSpace=wrap;html=1;align=center;" parent="1" vertex="1">
          <mxGeometry x="520" y="-730" width="100" height="40" as="geometry" />
        </mxCell>
        <mxCell id="HBSDMx_5VC7ug6HWO6Sl-60" value="id_quan_ly" style="ellipse;whiteSpace=wrap;html=1;align=center;fontStyle=4;" parent="1" vertex="1">
          <mxGeometry x="590" y="-790" width="100" height="40" as="geometry" />
        </mxCell>
        <mxCell id="HBSDMx_5VC7ug6HWO6Sl-62" value="ten_quan_ly" style="ellipse;whiteSpace=wrap;html=1;align=center;" parent="1" vertex="1">
          <mxGeometry x="465" y="-790" width="100" height="40" as="geometry" />
        </mxCell>
        <mxCell id="HBSDMx_5VC7ug6HWO6Sl-63" value="id_tai_khoan" style="ellipse;whiteSpace=wrap;html=1;align=center;fontStyle=4;" parent="1" vertex="1">
          <mxGeometry x="90" y="-740" width="100" height="40" as="geometry" />
        </mxCell>
        <mxCell id="HBSDMx_5VC7ug6HWO6Sl-64" value="nguoi_quan_ly" style="ellipse;whiteSpace=wrap;html=1;align=center;" parent="1" vertex="1">
          <mxGeometry x="240" y="-520" width="100" height="40" as="geometry" />
        </mxCell>
        <mxCell id="HBSDMx_5VC7ug6HWO6Sl-65" value="tai_khoan" style="ellipse;whiteSpace=wrap;html=1;align=center;" parent="1" vertex="1">
          <mxGeometry x="140" y="-465" width="100" height="40" as="geometry" />
        </mxCell>
        <mxCell id="HBSDMx_5VC7ug6HWO6Sl-66" value="gia_binh_quan" style="ellipse;whiteSpace=wrap;html=1;align=center;dashed=1;" parent="1" vertex="1">
          <mxGeometry x="280" y="-90" width="100" height="40" as="geometry" />
        </mxCell>
        <mxCell id="HBSDMx_5VC7ug6HWO6Sl-68" value="BAN_LE" style="whiteSpace=wrap;html=1;align=center;" parent="1" vertex="1">
          <mxGeometry x="230" width="100" height="40" as="geometry" />
        </mxCell>
        <mxCell id="HBSDMx_5VC7ug6HWO6Sl-70" value="don_vi_tinh" style="ellipse;whiteSpace=wrap;html=1;align=center;" parent="1" vertex="1">
          <mxGeometry x="190" y="200" width="100" height="40" as="geometry" />
        </mxCell>
        <mxCell id="HBSDMx_5VC7ug6HWO6Sl-71" value="gia_mua" style="ellipse;whiteSpace=wrap;html=1;align=center;" parent="1" vertex="1">
          <mxGeometry x="160" y="345" width="100" height="40" as="geometry" />
        </mxCell>
        <mxCell id="HBSDMx_5VC7ug6HWO6Sl-72" value="gia_ban" style="ellipse;whiteSpace=wrap;html=1;align=center;" parent="1" vertex="1">
          <mxGeometry x="350" y="355" width="100" height="40" as="geometry" />
        </mxCell>
        <mxCell id="HBSDMx_5VC7ug6HWO6Sl-73" value="ngay_mua" style="ellipse;whiteSpace=wrap;html=1;align=center;" parent="1" vertex="1">
          <mxGeometry x="200" y="395" width="100" height="40" as="geometry" />
        </mxCell>
        <mxCell id="HBSDMx_5VC7ug6HWO6Sl-74" value="ngay_ban" style="ellipse;whiteSpace=wrap;html=1;align=center;" parent="1" vertex="1">
          <mxGeometry x="300" y="395" width="100" height="40" as="geometry" />
        </mxCell>
        <mxCell id="HBSDMx_5VC7ug6HWO6Sl-75" value="gia_binh_quan" style="ellipse;whiteSpace=wrap;html=1;align=center;dashed=1;" parent="1" vertex="1">
          <mxGeometry x="300" y="200" width="100" height="40" as="geometry" />
        </mxCell>
        <mxCell id="HBSDMx_5VC7ug6HWO6Sl-76" value="ten_hang_hoa" style="ellipse;whiteSpace=wrap;html=1;align=center;" parent="1" vertex="1">
          <mxGeometry x="100" width="100" height="40" as="geometry" />
        </mxCell>
        <mxCell id="HBSDMx_5VC7ug6HWO6Sl-77" value="ten_hang_hoa" style="ellipse;whiteSpace=wrap;html=1;align=center;" parent="1" vertex="1">
          <mxGeometry x="110" y="305" width="100" height="40" as="geometry" />
        </mxCell>
        <mxCell id="HBSDMx_5VC7ug6HWO6Sl-79" value="id_nha_cc" style="ellipse;whiteSpace=wrap;html=1;align=center;fontStyle=4;" parent="1" vertex="1">
          <mxGeometry x="710" y="-230" width="90" height="40" as="geometry" />
        </mxCell>
        <mxCell id="9LCu63V-QyvPk4SNTMz8-1" value="dien_thoai" style="ellipse;whiteSpace=wrap;html=1;align=center;" parent="1" vertex="1">
          <mxGeometry x="650" y="-730" width="100" height="40" as="geometry" />
        </mxCell>
        <mxCell id="9LCu63V-QyvPk4SNTMz8-3" value="dia_chi" style="ellipse;whiteSpace=wrap;html=1;align=center;" parent="1" vertex="1">
          <mxGeometry x="430" y="-277.5" width="100" height="40" as="geometry" />
        </mxCell>
        <mxCell id="9LCu63V-QyvPk4SNTMz8-5" value="id_don_mua_ct" style="ellipse;whiteSpace=wrap;html=1;align=center;fontStyle=4;" parent="1" vertex="1">
          <mxGeometry x="1420" y="-330" width="100" height="40" as="geometry" />
        </mxCell>
        <mxCell id="9LCu63V-QyvPk4SNTMz8-6" value="id_don_ban" style="ellipse;whiteSpace=wrap;html=1;align=center;" parent="1" vertex="1">
          <mxGeometry x="1270" y="-525" width="100" height="40" as="geometry" />
        </mxCell>
        <mxCell id="9LCu63V-QyvPk4SNTMz8-7" value="id_ban_le" style="ellipse;whiteSpace=wrap;html=1;align=center;fontStyle=4;" parent="1" vertex="1">
          <mxGeometry x="100" y="-45" width="100" height="40" as="geometry" />
        </mxCell>
        <mxCell id="9LCu63V-QyvPk4SNTMz8-8" value="id_ban_si" style="ellipse;whiteSpace=wrap;html=1;align=center;fontStyle=4;" parent="1" vertex="1">
          <mxGeometry x="110" y="255" width="100" height="40" as="geometry" />
        </mxCell>
        <mxCell id="9LCu63V-QyvPk4SNTMz8-11" value="id_don_mua" style="ellipse;whiteSpace=wrap;html=1;align=center;fontStyle=4;" parent="1" vertex="1">
          <mxGeometry x="840" y="-262.5" width="100" height="40" as="geometry" />
        </mxCell>
        <mxCell id="9LCu63V-QyvPk4SNTMz8-14" value="nhan_vien_ghi_don" style="ellipse;whiteSpace=wrap;html=1;align=center;" parent="1" vertex="1">
          <mxGeometry x="1085" y="-210" width="110" height="40" as="geometry" />
        </mxCell>
        <mxCell id="9LCu63V-QyvPk4SNTMz8-15" value="id_don_ban_ct" style="ellipse;whiteSpace=wrap;html=1;align=center;fontStyle=4;" parent="1" vertex="1">
          <mxGeometry x="1270" y="-480" width="100" height="40" as="geometry" />
        </mxCell>
        <mxCell id="9LCu63V-QyvPk4SNTMz8-16" value="id_don_mua" style="ellipse;whiteSpace=wrap;html=1;align=center;" parent="1" vertex="1">
          <mxGeometry x="1510" y="-345" width="100" height="40" as="geometry" />
        </mxCell>
        <mxCell id="9LCu63V-QyvPk4SNTMz8-18" value="ma_hang_hoa" style="ellipse;whiteSpace=wrap;html=1;align=center;" parent="1" vertex="1">
          <mxGeometry x="1490" y="-170" width="100" height="40" as="geometry" />
        </mxCell>
        <mxCell id="9LCu63V-QyvPk4SNTMz8-19" value="gia_ban" style="ellipse;whiteSpace=wrap;html=1;align=center;" parent="1" vertex="1">
          <mxGeometry x="1410" y="-580" width="100" height="40" as="geometry" />
        </mxCell>
        <mxCell id="9LCu63V-QyvPk4SNTMz8-20" value="nhan_vien" style="ellipse;whiteSpace=wrap;html=1;align=center;" parent="1" vertex="1">
          <mxGeometry x="330" y="-730" width="100" height="40" as="geometry" />
        </mxCell>
        <mxCell id="9LCu63V-QyvPk4SNTMz8-24" value="" style="endArrow=none;html=1;rounded=0;" parent="1" source="HBSDMx_5VC7ug6HWO6Sl-34" target="HBSDMx_5VC7ug6HWO6Sl-52" edge="1">
          <mxGeometry relative="1" as="geometry">
            <mxPoint x="350" y="-670" as="sourcePoint" />
            <mxPoint x="510" y="-670" as="targetPoint" />
          </mxGeometry>
        </mxCell>
        <mxCell id="9LCu63V-QyvPk4SNTMz8-25" value="" style="endArrow=none;html=1;rounded=0;" parent="1" source="HBSDMx_5VC7ug6HWO6Sl-59" target="HBSDMx_5VC7ug6HWO6Sl-60" edge="1">
          <mxGeometry relative="1" as="geometry">
            <mxPoint x="420" y="-660.4" as="sourcePoint" />
            <mxPoint x="580" y="-660.4" as="targetPoint" />
          </mxGeometry>
        </mxCell>
        <mxCell id="9LCu63V-QyvPk4SNTMz8-26" value="" style="endArrow=none;html=1;rounded=0;" parent="1" source="HBSDMx_5VC7ug6HWO6Sl-52" target="9LCu63V-QyvPk4SNTMz8-20" edge="1">
          <mxGeometry relative="1" as="geometry">
            <mxPoint x="340" y="-670" as="sourcePoint" />
            <mxPoint x="500" y="-670" as="targetPoint" />
          </mxGeometry>
        </mxCell>
        <mxCell id="9LCu63V-QyvPk4SNTMz8-27" value="" style="endArrow=none;html=1;rounded=0;" parent="1" source="HBSDMx_5VC7ug6HWO6Sl-63" target="HBSDMx_5VC7ug6HWO6Sl-52" edge="1">
          <mxGeometry relative="1" as="geometry">
            <mxPoint x="350" y="-670" as="sourcePoint" />
            <mxPoint x="510" y="-670" as="targetPoint" />
          </mxGeometry>
        </mxCell>
        <mxCell id="9LCu63V-QyvPk4SNTMz8-28" value="" style="endArrow=none;html=1;rounded=0;" parent="1" source="HBSDMx_5VC7ug6HWO6Sl-33" target="HBSDMx_5VC7ug6HWO6Sl-52" edge="1">
          <mxGeometry relative="1" as="geometry">
            <mxPoint x="350" y="-670" as="sourcePoint" />
            <mxPoint x="510" y="-670" as="targetPoint" />
          </mxGeometry>
        </mxCell>
        <mxCell id="9LCu63V-QyvPk4SNTMz8-29" value="" style="endArrow=none;html=1;rounded=0;" parent="1" source="HBSDMx_5VC7ug6HWO6Sl-59" target="HBSDMx_5VC7ug6HWO6Sl-62" edge="1">
          <mxGeometry relative="1" as="geometry">
            <mxPoint x="350" y="-650" as="sourcePoint" />
            <mxPoint x="510" y="-650" as="targetPoint" />
          </mxGeometry>
        </mxCell>
        <mxCell id="9LCu63V-QyvPk4SNTMz8-30" value="" style="endArrow=none;html=1;rounded=0;" parent="1" source="HBSDMx_5VC7ug6HWO6Sl-59" target="9LCu63V-QyvPk4SNTMz8-1" edge="1">
          <mxGeometry relative="1" as="geometry">
            <mxPoint x="385" y="-670" as="sourcePoint" />
            <mxPoint x="545" y="-670" as="targetPoint" />
          </mxGeometry>
        </mxCell>
        <mxCell id="9LCu63V-QyvPk4SNTMz8-31" value="" style="endArrow=none;html=1;rounded=0;" parent="1" source="HBSDMx_5VC7ug6HWO6Sl-31" target="HBSDMx_5VC7ug6HWO6Sl-1" edge="1">
          <mxGeometry relative="1" as="geometry">
            <mxPoint x="270" y="-395" as="sourcePoint" />
            <mxPoint x="430" y="-395" as="targetPoint" />
          </mxGeometry>
        </mxCell>
        <mxCell id="9LCu63V-QyvPk4SNTMz8-32" value="" style="endArrow=none;html=1;rounded=0;entryX=0;entryY=0.25;entryDx=0;entryDy=0;" parent="1" source="HBSDMx_5VC7ug6HWO6Sl-53" target="HBSDMx_5VC7ug6HWO6Sl-1" edge="1">
          <mxGeometry relative="1" as="geometry">
            <mxPoint x="270" y="-395" as="sourcePoint" />
            <mxPoint x="430" y="-395" as="targetPoint" />
          </mxGeometry>
        </mxCell>
        <mxCell id="9LCu63V-QyvPk4SNTMz8-33" value="" style="endArrow=none;html=1;rounded=0;exitX=0;exitY=1;exitDx=0;exitDy=0;" parent="1" source="HBSDMx_5VC7ug6HWO6Sl-1" target="HBSDMx_5VC7ug6HWO6Sl-30" edge="1">
          <mxGeometry relative="1" as="geometry">
            <mxPoint x="270" y="-395" as="sourcePoint" />
            <mxPoint x="430" y="-395" as="targetPoint" />
          </mxGeometry>
        </mxCell>
        <mxCell id="9LCu63V-QyvPk4SNTMz8-34" value="" style="endArrow=none;html=1;rounded=0;entryX=0.5;entryY=1;entryDx=0;entryDy=0;" parent="1" source="HBSDMx_5VC7ug6HWO6Sl-1" target="HBSDMx_5VC7ug6HWO6Sl-64" edge="1">
          <mxGeometry relative="1" as="geometry">
            <mxPoint x="270" y="-395" as="sourcePoint" />
            <mxPoint x="430" y="-395" as="targetPoint" />
          </mxGeometry>
        </mxCell>
        <mxCell id="9LCu63V-QyvPk4SNTMz8-35" value="" style="endArrow=none;html=1;rounded=0;" parent="1" source="HBSDMx_5VC7ug6HWO6Sl-65" target="HBSDMx_5VC7ug6HWO6Sl-1" edge="1">
          <mxGeometry relative="1" as="geometry">
            <mxPoint x="270" y="-395" as="sourcePoint" />
            <mxPoint x="430" y="-395" as="targetPoint" />
          </mxGeometry>
        </mxCell>
        <mxCell id="9LCu63V-QyvPk4SNTMz8-36" value="" style="endArrow=none;html=1;rounded=0;exitX=0.695;exitY=0.985;exitDx=0;exitDy=0;exitPerimeter=0;" parent="1" source="HBSDMx_5VC7ug6HWO6Sl-1" target="HBSDMx_5VC7ug6HWO6Sl-29" edge="1">
          <mxGeometry relative="1" as="geometry">
            <mxPoint x="270" y="-395" as="sourcePoint" />
            <mxPoint x="430" y="-395" as="targetPoint" />
          </mxGeometry>
        </mxCell>
        <mxCell id="9LCu63V-QyvPk4SNTMz8-37" value="" style="endArrow=none;html=1;rounded=0;entryX=0;entryY=1;entryDx=0;entryDy=0;exitX=0.905;exitY=0.05;exitDx=0;exitDy=0;exitPerimeter=0;" parent="1" source="HBSDMx_5VC7ug6HWO6Sl-1" target="HBSDMx_5VC7ug6HWO6Sl-48" edge="1">
          <mxGeometry relative="1" as="geometry">
            <mxPoint x="360" y="-445" as="sourcePoint" />
            <mxPoint x="369.9999999999998" y="-385" as="targetPoint" />
          </mxGeometry>
        </mxCell>
        <mxCell id="9LCu63V-QyvPk4SNTMz8-41" value="su_dung_tk" style="shape=rhombus;perimeter=rhombusPerimeter;whiteSpace=wrap;html=1;align=center;" parent="1" vertex="1">
          <mxGeometry x="170" y="-580" width="100" height="40" as="geometry" />
        </mxCell>
        <mxCell id="9LCu63V-QyvPk4SNTMz8-42" value="quan_ly" style="shape=rhombus;perimeter=rhombusPerimeter;whiteSpace=wrap;html=1;align=center;" parent="1" vertex="1">
          <mxGeometry x="350" y="-600" width="80" height="40" as="geometry" />
        </mxCell>
        <mxCell id="9LCu63V-QyvPk4SNTMz8-44" value="" style="endArrow=none;html=1;rounded=0;entryX=0.584;entryY=1.035;entryDx=0;entryDy=0;entryPerimeter=0;exitX=0.5;exitY=0;exitDx=0;exitDy=0;" parent="1" source="9LCu63V-QyvPk4SNTMz8-41" target="HBSDMx_5VC7ug6HWO6Sl-52" edge="1">
          <mxGeometry relative="1" as="geometry">
            <mxPoint x="400" y="-560" as="sourcePoint" />
            <mxPoint x="560" y="-560" as="targetPoint" />
          </mxGeometry>
        </mxCell>
        <mxCell id="9LCu63V-QyvPk4SNTMz8-45" value="1" style="resizable=0;html=1;whiteSpace=wrap;align=right;verticalAlign=bottom;" parent="9LCu63V-QyvPk4SNTMz8-44" connectable="0" vertex="1">
          <mxGeometry x="1" relative="1" as="geometry">
            <mxPoint x="2" y="29" as="offset" />
          </mxGeometry>
        </mxCell>
        <mxCell id="9LCu63V-QyvPk4SNTMz8-46" value="" style="endArrow=none;html=1;rounded=0;entryX=0.455;entryY=-0.015;entryDx=0;entryDy=0;entryPerimeter=0;exitX=0.5;exitY=1;exitDx=0;exitDy=0;" parent="1" source="9LCu63V-QyvPk4SNTMz8-41" target="HBSDMx_5VC7ug6HWO6Sl-1" edge="1">
          <mxGeometry relative="1" as="geometry">
            <mxPoint x="260" y="-485" as="sourcePoint" />
            <mxPoint x="540" y="-445" as="targetPoint" />
          </mxGeometry>
        </mxCell>
        <mxCell id="9LCu63V-QyvPk4SNTMz8-47" value="1" style="resizable=0;html=1;whiteSpace=wrap;align=right;verticalAlign=bottom;" parent="9LCu63V-QyvPk4SNTMz8-46" connectable="0" vertex="1">
          <mxGeometry x="1" relative="1" as="geometry">
            <mxPoint x="-13" y="-14" as="offset" />
          </mxGeometry>
        </mxCell>
        <mxCell id="9LCu63V-QyvPk4SNTMz8-48" value="" style="endArrow=none;html=1;rounded=0;entryX=0.284;entryY=0.975;entryDx=0;entryDy=0;entryPerimeter=0;exitX=0.5;exitY=0;exitDx=0;exitDy=0;" parent="1" source="9LCu63V-QyvPk4SNTMz8-42" target="HBSDMx_5VC7ug6HWO6Sl-59" edge="1">
          <mxGeometry relative="1" as="geometry">
            <mxPoint x="400" y="-560" as="sourcePoint" />
            <mxPoint x="560" y="-560" as="targetPoint" />
          </mxGeometry>
        </mxCell>
        <mxCell id="9LCu63V-QyvPk4SNTMz8-49" value="1" style="resizable=0;html=1;whiteSpace=wrap;align=right;verticalAlign=bottom;" parent="9LCu63V-QyvPk4SNTMz8-48" connectable="0" vertex="1">
          <mxGeometry x="1" relative="1" as="geometry">
            <mxPoint x="2" y="31" as="offset" />
          </mxGeometry>
        </mxCell>
        <mxCell id="9LCu63V-QyvPk4SNTMz8-50" value="" style="endArrow=none;html=1;rounded=0;exitX=0.5;exitY=1;exitDx=0;exitDy=0;entryX=0.75;entryY=0;entryDx=0;entryDy=0;" parent="1" source="9LCu63V-QyvPk4SNTMz8-42" target="HBSDMx_5VC7ug6HWO6Sl-1" edge="1">
          <mxGeometry relative="1" as="geometry">
            <mxPoint x="434.4000000000001" y="-471.1999999999998" as="sourcePoint" />
            <mxPoint x="540" y="-445" as="targetPoint" />
          </mxGeometry>
        </mxCell>
        <mxCell id="9LCu63V-QyvPk4SNTMz8-51" value="N" style="resizable=0;html=1;whiteSpace=wrap;align=right;verticalAlign=bottom;" parent="9LCu63V-QyvPk4SNTMz8-50" connectable="0" vertex="1">
          <mxGeometry x="1" relative="1" as="geometry" />
        </mxCell>
        <mxCell id="9LCu63V-QyvPk4SNTMz8-52" value="dien_thoai" style="ellipse;whiteSpace=wrap;html=1;align=center;" parent="1" vertex="1">
          <mxGeometry x="540" y="-560" width="100" height="40" as="geometry" />
        </mxCell>
        <mxCell id="9LCu63V-QyvPk4SNTMz8-53" value="" style="endArrow=none;html=1;rounded=0;entryX=0;entryY=0.5;entryDx=0;entryDy=0;" parent="1" source="HBSDMx_5VC7ug6HWO6Sl-56" target="HBSDMx_5VC7ug6HWO6Sl-57" edge="1">
          <mxGeometry relative="1" as="geometry">
            <mxPoint x="630" y="-480" as="sourcePoint" />
            <mxPoint x="790" y="-480" as="targetPoint" />
          </mxGeometry>
        </mxCell>
        <mxCell id="9LCu63V-QyvPk4SNTMz8-54" value="" style="endArrow=none;html=1;rounded=0;exitX=0.75;exitY=0;exitDx=0;exitDy=0;" parent="1" source="HBSDMx_5VC7ug6HWO6Sl-56" target="HBSDMx_5VC7ug6HWO6Sl-58" edge="1">
          <mxGeometry relative="1" as="geometry">
            <mxPoint x="690" y="-490" as="sourcePoint" />
            <mxPoint x="790" y="-480" as="targetPoint" />
          </mxGeometry>
        </mxCell>
        <mxCell id="9LCu63V-QyvPk4SNTMz8-55" value="" style="endArrow=none;html=1;rounded=0;exitX=0.56;exitY=0.995;exitDx=0;exitDy=0;exitPerimeter=0;entryX=0.36;entryY=0.015;entryDx=0;entryDy=0;entryPerimeter=0;" parent="1" source="9LCu63V-QyvPk4SNTMz8-52" target="HBSDMx_5VC7ug6HWO6Sl-56" edge="1">
          <mxGeometry relative="1" as="geometry">
            <mxPoint x="630" y="-480" as="sourcePoint" />
            <mxPoint x="630" y="-500" as="targetPoint" />
          </mxGeometry>
        </mxCell>
        <mxCell id="9LCu63V-QyvPk4SNTMz8-56" value="" style="endArrow=none;html=1;rounded=0;" parent="1" source="HBSDMx_5VC7ug6HWO6Sl-46" target="HBSDMx_5VC7ug6HWO6Sl-56" edge="1">
          <mxGeometry relative="1" as="geometry">
            <mxPoint x="630" y="-480" as="sourcePoint" />
            <mxPoint x="790" y="-480" as="targetPoint" />
          </mxGeometry>
        </mxCell>
        <mxCell id="9LCu63V-QyvPk4SNTMz8-59" value="" style="endArrow=none;html=1;rounded=0;" parent="1" source="HBSDMx_5VC7ug6HWO6Sl-6" target="HBSDMx_5VC7ug6HWO6Sl-2" edge="1">
          <mxGeometry relative="1" as="geometry">
            <mxPoint x="1230" y="240" as="sourcePoint" />
            <mxPoint x="1390" y="240" as="targetPoint" />
          </mxGeometry>
        </mxCell>
        <mxCell id="9LCu63V-QyvPk4SNTMz8-62" value="" style="endArrow=none;html=1;rounded=0;exitX=0.352;exitY=0.96;exitDx=0;exitDy=0;exitPerimeter=0;" parent="1" source="HBSDMx_5VC7ug6HWO6Sl-68" target="HBSDMx_5VC7ug6HWO6Sl-8" edge="1">
          <mxGeometry relative="1" as="geometry">
            <mxPoint x="310" y="35" as="sourcePoint" />
            <mxPoint x="470" y="35" as="targetPoint" />
          </mxGeometry>
        </mxCell>
        <mxCell id="9LCu63V-QyvPk4SNTMz8-63" value="" style="endArrow=none;html=1;rounded=0;entryX=0.896;entryY=0.215;entryDx=0;entryDy=0;entryPerimeter=0;" parent="1" source="HBSDMx_5VC7ug6HWO6Sl-68" target="HBSDMx_5VC7ug6HWO6Sl-10" edge="1">
          <mxGeometry relative="1" as="geometry">
            <mxPoint x="310" y="35" as="sourcePoint" />
            <mxPoint x="470" y="35" as="targetPoint" />
          </mxGeometry>
        </mxCell>
        <mxCell id="9LCu63V-QyvPk4SNTMz8-64" value="" style="endArrow=none;html=1;rounded=0;exitX=1;exitY=0.5;exitDx=0;exitDy=0;" parent="1" source="HBSDMx_5VC7ug6HWO6Sl-76" target="HBSDMx_5VC7ug6HWO6Sl-68" edge="1">
          <mxGeometry relative="1" as="geometry">
            <mxPoint x="310" y="35" as="sourcePoint" />
            <mxPoint x="240" y="25" as="targetPoint" />
          </mxGeometry>
        </mxCell>
        <mxCell id="9LCu63V-QyvPk4SNTMz8-65" value="" style="endArrow=none;html=1;rounded=0;entryX=0;entryY=0;entryDx=0;entryDy=0;" parent="1" source="9LCu63V-QyvPk4SNTMz8-7" target="HBSDMx_5VC7ug6HWO6Sl-68" edge="1">
          <mxGeometry relative="1" as="geometry">
            <mxPoint x="310" y="35" as="sourcePoint" />
            <mxPoint x="470" y="35" as="targetPoint" />
          </mxGeometry>
        </mxCell>
        <mxCell id="9LCu63V-QyvPk4SNTMz8-66" value="" style="endArrow=none;html=1;rounded=0;" parent="1" source="HBSDMx_5VC7ug6HWO6Sl-68" target="HBSDMx_5VC7ug6HWO6Sl-66" edge="1">
          <mxGeometry relative="1" as="geometry">
            <mxPoint x="310" y="35" as="sourcePoint" />
            <mxPoint x="470" y="35" as="targetPoint" />
          </mxGeometry>
        </mxCell>
        <mxCell id="9LCu63V-QyvPk4SNTMz8-67" value="" style="endArrow=none;html=1;rounded=0;exitX=0.5;exitY=1;exitDx=0;exitDy=0;" parent="1" source="HBSDMx_5VC7ug6HWO6Sl-68" target="HBSDMx_5VC7ug6HWO6Sl-54" edge="1">
          <mxGeometry relative="1" as="geometry">
            <mxPoint x="310" y="35" as="sourcePoint" />
            <mxPoint x="470" y="35" as="targetPoint" />
          </mxGeometry>
        </mxCell>
        <mxCell id="9LCu63V-QyvPk4SNTMz8-68" value="" style="endArrow=none;html=1;rounded=0;exitX=0.668;exitY=1.01;exitDx=0;exitDy=0;exitPerimeter=0;" parent="1" source="HBSDMx_5VC7ug6HWO6Sl-68" target="HBSDMx_5VC7ug6HWO6Sl-9" edge="1">
          <mxGeometry relative="1" as="geometry">
            <mxPoint x="310" y="35" as="sourcePoint" />
            <mxPoint x="470" y="35" as="targetPoint" />
          </mxGeometry>
        </mxCell>
        <mxCell id="9LCu63V-QyvPk4SNTMz8-69" value="" style="endArrow=none;html=1;rounded=0;exitX=0.618;exitY=0.981;exitDx=0;exitDy=0;exitPerimeter=0;" parent="1" source="HBSDMx_5VC7ug6HWO6Sl-5" target="HBSDMx_5VC7ug6HWO6Sl-68" edge="1">
          <mxGeometry relative="1" as="geometry">
            <mxPoint x="350" y="-25" as="sourcePoint" />
            <mxPoint x="470" y="35" as="targetPoint" />
          </mxGeometry>
        </mxCell>
        <mxCell id="9LCu63V-QyvPk4SNTMz8-70" value="" style="endArrow=none;html=1;rounded=0;exitX=0.616;exitY=0.035;exitDx=0;exitDy=0;exitPerimeter=0;" parent="1" source="HBSDMx_5VC7ug6HWO6Sl-73" target="HBSDMx_5VC7ug6HWO6Sl-49" edge="1">
          <mxGeometry relative="1" as="geometry">
            <mxPoint x="250" y="335" as="sourcePoint" />
            <mxPoint x="410" y="335" as="targetPoint" />
          </mxGeometry>
        </mxCell>
        <mxCell id="9LCu63V-QyvPk4SNTMz8-71" value="" style="endArrow=none;html=1;rounded=0;exitX=0.792;exitY=0.142;exitDx=0;exitDy=0;exitPerimeter=0;" parent="1" source="HBSDMx_5VC7ug6HWO6Sl-71" target="HBSDMx_5VC7ug6HWO6Sl-49" edge="1">
          <mxGeometry relative="1" as="geometry">
            <mxPoint x="250" y="335" as="sourcePoint" />
            <mxPoint x="410" y="335" as="targetPoint" />
          </mxGeometry>
        </mxCell>
        <mxCell id="9LCu63V-QyvPk4SNTMz8-72" value="" style="endArrow=none;html=1;rounded=0;exitX=1;exitY=0.5;exitDx=0;exitDy=0;entryX=0;entryY=0.75;entryDx=0;entryDy=0;" parent="1" source="HBSDMx_5VC7ug6HWO6Sl-77" target="HBSDMx_5VC7ug6HWO6Sl-49" edge="1">
          <mxGeometry relative="1" as="geometry">
            <mxPoint x="250" y="335" as="sourcePoint" />
            <mxPoint x="410" y="335" as="targetPoint" />
          </mxGeometry>
        </mxCell>
        <mxCell id="9LCu63V-QyvPk4SNTMz8-73" value="" style="endArrow=none;html=1;rounded=0;" parent="1" source="9LCu63V-QyvPk4SNTMz8-8" edge="1">
          <mxGeometry relative="1" as="geometry">
            <mxPoint x="250" y="335" as="sourcePoint" />
            <mxPoint x="250" y="295" as="targetPoint" />
          </mxGeometry>
        </mxCell>
        <mxCell id="9LCu63V-QyvPk4SNTMz8-74" value="" style="endArrow=none;html=1;rounded=0;entryX=0.307;entryY=0.923;entryDx=0;entryDy=0;entryPerimeter=0;" parent="1" source="HBSDMx_5VC7ug6HWO6Sl-49" target="HBSDMx_5VC7ug6HWO6Sl-75" edge="1">
          <mxGeometry relative="1" as="geometry">
            <mxPoint x="250" y="335" as="sourcePoint" />
            <mxPoint x="410" y="335" as="targetPoint" />
          </mxGeometry>
        </mxCell>
        <mxCell id="9LCu63V-QyvPk4SNTMz8-75" value="" style="endArrow=none;html=1;rounded=0;exitX=0.611;exitY=1.023;exitDx=0;exitDy=0;exitPerimeter=0;" parent="1" source="HBSDMx_5VC7ug6HWO6Sl-49" target="HBSDMx_5VC7ug6HWO6Sl-74" edge="1">
          <mxGeometry relative="1" as="geometry">
            <mxPoint x="190" y="404.76" as="sourcePoint" />
            <mxPoint x="350" y="404.76" as="targetPoint" />
          </mxGeometry>
        </mxCell>
        <mxCell id="9LCu63V-QyvPk4SNTMz8-76" value="" style="endArrow=none;html=1;rounded=0;exitX=0.097;exitY=0.005;exitDx=0;exitDy=0;entryX=0.5;entryY=1;entryDx=0;entryDy=0;exitPerimeter=0;" parent="1" source="HBSDMx_5VC7ug6HWO6Sl-49" target="HBSDMx_5VC7ug6HWO6Sl-70" edge="1">
          <mxGeometry relative="1" as="geometry">
            <mxPoint x="250" y="335" as="sourcePoint" />
            <mxPoint x="410" y="335" as="targetPoint" />
          </mxGeometry>
        </mxCell>
        <mxCell id="9LCu63V-QyvPk4SNTMz8-77" value="" style="endArrow=none;html=1;rounded=0;" parent="1" source="HBSDMx_5VC7ug6HWO6Sl-49" target="HBSDMx_5VC7ug6HWO6Sl-72" edge="1">
          <mxGeometry relative="1" as="geometry">
            <mxPoint x="250" y="335" as="sourcePoint" />
            <mxPoint x="410" y="335" as="targetPoint" />
          </mxGeometry>
        </mxCell>
        <mxCell id="9LCu63V-QyvPk4SNTMz8-95" value="" style="endArrow=none;html=1;rounded=0;entryX=0.405;entryY=0;entryDx=0;entryDy=0;entryPerimeter=0;exitX=0.537;exitY=0.983;exitDx=0;exitDy=0;exitPerimeter=0;" parent="1" source="HBSDMx_5VC7ug6HWO6Sl-44" target="HBSDMx_5VC7ug6HWO6Sl-45" edge="1">
          <mxGeometry relative="1" as="geometry">
            <mxPoint x="600" y="-350" as="sourcePoint" />
            <mxPoint x="760" y="-350" as="targetPoint" />
          </mxGeometry>
        </mxCell>
        <mxCell id="9LCu63V-QyvPk4SNTMz8-96" value="" style="endArrow=none;html=1;rounded=0;" parent="1" source="HBSDMx_5VC7ug6HWO6Sl-44" target="HBSDMx_5VC7ug6HWO6Sl-79" edge="1">
          <mxGeometry relative="1" as="geometry">
            <mxPoint x="600" y="-350" as="sourcePoint" />
            <mxPoint x="760" y="-350" as="targetPoint" />
          </mxGeometry>
        </mxCell>
        <mxCell id="9LCu63V-QyvPk4SNTMz8-98" value="" style="endArrow=none;html=1;rounded=0;exitX=1;exitY=0.5;exitDx=0;exitDy=0;" parent="1" source="9LCu63V-QyvPk4SNTMz8-3" target="HBSDMx_5VC7ug6HWO6Sl-44" edge="1">
          <mxGeometry relative="1" as="geometry">
            <mxPoint x="600" y="-350" as="sourcePoint" />
            <mxPoint x="580" y="-250" as="targetPoint" />
          </mxGeometry>
        </mxCell>
        <mxCell id="9LCu63V-QyvPk4SNTMz8-99" value="" style="endArrow=none;html=1;rounded=0;entryX=0.5;entryY=0;entryDx=0;entryDy=0;exitX=0;exitY=1;exitDx=0;exitDy=0;" parent="1" source="HBSDMx_5VC7ug6HWO6Sl-44" target="HBSDMx_5VC7ug6HWO6Sl-47" edge="1">
          <mxGeometry relative="1" as="geometry">
            <mxPoint x="600" y="-350" as="sourcePoint" />
            <mxPoint x="760" y="-350" as="targetPoint" />
          </mxGeometry>
        </mxCell>
        <mxCell id="9LCu63V-QyvPk4SNTMz8-100" value="" style="endArrow=none;html=1;rounded=0;entryX=1;entryY=0.5;entryDx=0;entryDy=0;exitX=0;exitY=0.5;exitDx=0;exitDy=0;" parent="1" source="HBSDMx_5VC7ug6HWO6Sl-35" target="9LCu63V-QyvPk4SNTMz8-11" edge="1">
          <mxGeometry relative="1" as="geometry">
            <mxPoint x="990" y="-350" as="sourcePoint" />
            <mxPoint x="1150" y="-350" as="targetPoint" />
          </mxGeometry>
        </mxCell>
        <mxCell id="9LCu63V-QyvPk4SNTMz8-101" value="" style="endArrow=none;html=1;rounded=0;" parent="1" source="HBSDMx_5VC7ug6HWO6Sl-35" target="HBSDMx_5VC7ug6HWO6Sl-37" edge="1">
          <mxGeometry relative="1" as="geometry">
            <mxPoint x="990" y="-350" as="sourcePoint" />
            <mxPoint x="1150" y="-350" as="targetPoint" />
          </mxGeometry>
        </mxCell>
        <mxCell id="9LCu63V-QyvPk4SNTMz8-102" value="" style="endArrow=none;html=1;rounded=0;entryX=0.355;entryY=0.975;entryDx=0;entryDy=0;entryPerimeter=0;" parent="1" source="HBSDMx_5VC7ug6HWO6Sl-16" target="HBSDMx_5VC7ug6HWO6Sl-20" edge="1">
          <mxGeometry relative="1" as="geometry">
            <mxPoint x="990" y="-350" as="sourcePoint" />
            <mxPoint x="1150" y="-350" as="targetPoint" />
          </mxGeometry>
        </mxCell>
        <mxCell id="9LCu63V-QyvPk4SNTMz8-103" value="" style="endArrow=none;html=1;rounded=0;exitX=0;exitY=1;exitDx=0;exitDy=0;entryX=0.75;entryY=0;entryDx=0;entryDy=0;" parent="1" source="HBSDMx_5VC7ug6HWO6Sl-19" target="HBSDMx_5VC7ug6HWO6Sl-16" edge="1">
          <mxGeometry relative="1" as="geometry">
            <mxPoint x="990" y="-350" as="sourcePoint" />
            <mxPoint x="1150" y="-350" as="targetPoint" />
          </mxGeometry>
        </mxCell>
        <mxCell id="9LCu63V-QyvPk4SNTMz8-104" value="" style="endArrow=none;html=1;rounded=0;" parent="1" source="HBSDMx_5VC7ug6HWO6Sl-55" target="HBSDMx_5VC7ug6HWO6Sl-16" edge="1">
          <mxGeometry relative="1" as="geometry">
            <mxPoint x="990" y="-350" as="sourcePoint" />
            <mxPoint x="1150" y="-350" as="targetPoint" />
          </mxGeometry>
        </mxCell>
        <mxCell id="9LCu63V-QyvPk4SNTMz8-105" value="" style="endArrow=none;html=1;rounded=0;exitX=1;exitY=1;exitDx=0;exitDy=0;entryX=0.192;entryY=0.04;entryDx=0;entryDy=0;entryPerimeter=0;" parent="1" source="HBSDMx_5VC7ug6HWO6Sl-17" target="HBSDMx_5VC7ug6HWO6Sl-16" edge="1">
          <mxGeometry relative="1" as="geometry">
            <mxPoint x="990" y="-350" as="sourcePoint" />
            <mxPoint x="990" y="-470" as="targetPoint" />
          </mxGeometry>
        </mxCell>
        <mxCell id="9LCu63V-QyvPk4SNTMz8-106" value="" style="endArrow=none;html=1;rounded=0;exitX=0.564;exitY=0.963;exitDx=0;exitDy=0;exitPerimeter=0;entryX=0.5;entryY=0;entryDx=0;entryDy=0;" parent="1" source="HBSDMx_5VC7ug6HWO6Sl-18" target="HBSDMx_5VC7ug6HWO6Sl-16" edge="1">
          <mxGeometry relative="1" as="geometry">
            <mxPoint x="990" y="-350" as="sourcePoint" />
            <mxPoint x="1150" y="-350" as="targetPoint" />
          </mxGeometry>
        </mxCell>
        <mxCell id="9LCu63V-QyvPk4SNTMz8-108" value="" style="endArrow=none;html=1;rounded=0;" parent="1" source="HBSDMx_5VC7ug6HWO6Sl-35" target="9LCu63V-QyvPk4SNTMz8-14" edge="1">
          <mxGeometry relative="1" as="geometry">
            <mxPoint x="1020" y="-290" as="sourcePoint" />
            <mxPoint x="1180" y="-290" as="targetPoint" />
          </mxGeometry>
        </mxCell>
        <mxCell id="9LCu63V-QyvPk4SNTMz8-109" value="" style="endArrow=none;html=1;rounded=0;exitX=0.75;exitY=1;exitDx=0;exitDy=0;" parent="1" source="HBSDMx_5VC7ug6HWO6Sl-35" target="HBSDMx_5VC7ug6HWO6Sl-38" edge="1">
          <mxGeometry relative="1" as="geometry">
            <mxPoint x="1020" y="-290" as="sourcePoint" />
            <mxPoint x="1180" y="-290" as="targetPoint" />
          </mxGeometry>
        </mxCell>
        <mxCell id="9LCu63V-QyvPk4SNTMz8-110" value="" style="endArrow=none;html=1;rounded=0;entryX=0.416;entryY=-0.046;entryDx=0;entryDy=0;entryPerimeter=0;" parent="1" source="HBSDMx_5VC7ug6HWO6Sl-35" target="HBSDMx_5VC7ug6HWO6Sl-36" edge="1">
          <mxGeometry relative="1" as="geometry">
            <mxPoint x="1020" y="-290" as="sourcePoint" />
            <mxPoint x="1180" y="-290" as="targetPoint" />
          </mxGeometry>
        </mxCell>
        <mxCell id="9LCu63V-QyvPk4SNTMz8-111" value="" style="endArrow=none;html=1;rounded=0;exitX=0.916;exitY=0.743;exitDx=0;exitDy=0;exitPerimeter=0;entryX=0;entryY=0;entryDx=0;entryDy=0;" parent="1" source="9LCu63V-QyvPk4SNTMz8-6" target="HBSDMx_5VC7ug6HWO6Sl-39" edge="1">
          <mxGeometry relative="1" as="geometry">
            <mxPoint x="1370" y="-490" as="sourcePoint" />
            <mxPoint x="1390" y="-480" as="targetPoint" />
          </mxGeometry>
        </mxCell>
        <mxCell id="9LCu63V-QyvPk4SNTMz8-112" value="" style="endArrow=none;html=1;rounded=0;entryX=0.25;entryY=0;entryDx=0;entryDy=0;" parent="1" source="HBSDMx_5VC7ug6HWO6Sl-40" target="HBSDMx_5VC7ug6HWO6Sl-39" edge="1">
          <mxGeometry relative="1" as="geometry">
            <mxPoint x="1420" y="-360" as="sourcePoint" />
            <mxPoint x="1580" y="-360" as="targetPoint" />
          </mxGeometry>
        </mxCell>
        <mxCell id="9LCu63V-QyvPk4SNTMz8-113" value="" style="endArrow=none;html=1;rounded=0;entryX=0.5;entryY=1;entryDx=0;entryDy=0;exitX=0.478;exitY=0.017;exitDx=0;exitDy=0;exitPerimeter=0;" parent="1" source="HBSDMx_5VC7ug6HWO6Sl-39" target="9LCu63V-QyvPk4SNTMz8-19" edge="1">
          <mxGeometry relative="1" as="geometry">
            <mxPoint x="1420" y="-360" as="sourcePoint" />
            <mxPoint x="1580" y="-360" as="targetPoint" />
          </mxGeometry>
        </mxCell>
        <mxCell id="9LCu63V-QyvPk4SNTMz8-114" value="" style="endArrow=none;html=1;rounded=0;" parent="1" source="HBSDMx_5VC7ug6HWO6Sl-39" target="HBSDMx_5VC7ug6HWO6Sl-43" edge="1">
          <mxGeometry relative="1" as="geometry">
            <mxPoint x="1420" y="-360" as="sourcePoint" />
            <mxPoint x="1580" y="-360" as="targetPoint" />
          </mxGeometry>
        </mxCell>
        <mxCell id="9LCu63V-QyvPk4SNTMz8-115" value="" style="endArrow=none;html=1;rounded=0;" parent="1" source="HBSDMx_5VC7ug6HWO6Sl-39" target="HBSDMx_5VC7ug6HWO6Sl-42" edge="1">
          <mxGeometry relative="1" as="geometry">
            <mxPoint x="1420" y="-360" as="sourcePoint" />
            <mxPoint x="1580" y="-360" as="targetPoint" />
          </mxGeometry>
        </mxCell>
        <mxCell id="9LCu63V-QyvPk4SNTMz8-116" value="" style="endArrow=none;html=1;rounded=0;" parent="1" source="HBSDMx_5VC7ug6HWO6Sl-39" target="HBSDMx_5VC7ug6HWO6Sl-41" edge="1">
          <mxGeometry relative="1" as="geometry">
            <mxPoint x="1420" y="-360" as="sourcePoint" />
            <mxPoint x="1580" y="-360" as="targetPoint" />
          </mxGeometry>
        </mxCell>
        <mxCell id="9LCu63V-QyvPk4SNTMz8-117" value="" style="endArrow=none;html=1;rounded=0;exitX=0.5;exitY=1;exitDx=0;exitDy=0;" parent="1" source="HBSDMx_5VC7ug6HWO6Sl-21" target="9LCu63V-QyvPk4SNTMz8-18" edge="1">
          <mxGeometry relative="1" as="geometry">
            <mxPoint x="1420" y="-360" as="sourcePoint" />
            <mxPoint x="1580" y="-360" as="targetPoint" />
          </mxGeometry>
        </mxCell>
        <mxCell id="9LCu63V-QyvPk4SNTMz8-118" value="" style="endArrow=none;html=1;rounded=0;exitX=0.75;exitY=1;exitDx=0;exitDy=0;" parent="1" source="HBSDMx_5VC7ug6HWO6Sl-21" target="HBSDMx_5VC7ug6HWO6Sl-26" edge="1">
          <mxGeometry relative="1" as="geometry">
            <mxPoint x="1420" y="-360" as="sourcePoint" />
            <mxPoint x="1580" y="-360" as="targetPoint" />
          </mxGeometry>
        </mxCell>
        <mxCell id="9LCu63V-QyvPk4SNTMz8-119" value="" style="endArrow=none;html=1;rounded=0;exitX=1;exitY=0.75;exitDx=0;exitDy=0;entryX=0;entryY=0.5;entryDx=0;entryDy=0;" parent="1" source="HBSDMx_5VC7ug6HWO6Sl-21" target="HBSDMx_5VC7ug6HWO6Sl-23" edge="1">
          <mxGeometry relative="1" as="geometry">
            <mxPoint x="1420" y="-360" as="sourcePoint" />
            <mxPoint x="1560" y="-170" as="targetPoint" />
          </mxGeometry>
        </mxCell>
        <mxCell id="9LCu63V-QyvPk4SNTMz8-120" value="" style="endArrow=none;html=1;rounded=0;entryX=0.011;entryY=0.404;entryDx=0;entryDy=0;entryPerimeter=0;" parent="1" source="HBSDMx_5VC7ug6HWO6Sl-21" target="HBSDMx_5VC7ug6HWO6Sl-27" edge="1">
          <mxGeometry relative="1" as="geometry">
            <mxPoint x="1420" y="-360" as="sourcePoint" />
            <mxPoint x="1580" y="-360" as="targetPoint" />
          </mxGeometry>
        </mxCell>
        <mxCell id="9LCu63V-QyvPk4SNTMz8-121" value="" style="endArrow=none;html=1;rounded=0;" parent="1" source="HBSDMx_5VC7ug6HWO6Sl-21" target="HBSDMx_5VC7ug6HWO6Sl-28" edge="1">
          <mxGeometry relative="1" as="geometry">
            <mxPoint x="1420" y="-360" as="sourcePoint" />
            <mxPoint x="1580" y="-360" as="targetPoint" />
          </mxGeometry>
        </mxCell>
        <mxCell id="9LCu63V-QyvPk4SNTMz8-122" value="" style="endArrow=none;html=1;rounded=0;exitX=0.94;exitY=0.701;exitDx=0;exitDy=0;exitPerimeter=0;" parent="1" source="9LCu63V-QyvPk4SNTMz8-15" target="HBSDMx_5VC7ug6HWO6Sl-39" edge="1">
          <mxGeometry relative="1" as="geometry">
            <mxPoint x="1420" y="-360" as="sourcePoint" />
            <mxPoint x="1580" y="-360" as="targetPoint" />
          </mxGeometry>
        </mxCell>
        <mxCell id="9LCu63V-QyvPk4SNTMz8-124" value="" style="endArrow=none;html=1;rounded=0;" parent="1" source="HBSDMx_5VC7ug6HWO6Sl-21" target="9LCu63V-QyvPk4SNTMz8-16" edge="1">
          <mxGeometry relative="1" as="geometry">
            <mxPoint x="1470" y="-240" as="sourcePoint" />
            <mxPoint x="1630" y="-240" as="targetPoint" />
          </mxGeometry>
        </mxCell>
        <mxCell id="9LCu63V-QyvPk4SNTMz8-126" value="chi_tiet" style="shape=rhombus;perimeter=rhombusPerimeter;whiteSpace=wrap;html=1;align=center;" parent="1" vertex="1">
          <mxGeometry x="1220" y="-420" width="80" height="45" as="geometry" />
        </mxCell>
        <mxCell id="9LCu63V-QyvPk4SNTMz8-128" value="chi_tiet" style="shape=rhombus;perimeter=rhombusPerimeter;whiteSpace=wrap;html=1;align=center;" parent="1" vertex="1">
          <mxGeometry x="1220" y="-315" width="80" height="45" as="geometry" />
        </mxCell>
        <mxCell id="9LCu63V-QyvPk4SNTMz8-129" value="" style="endArrow=none;html=1;rounded=0;entryX=0.5;entryY=1;entryDx=0;entryDy=0;exitX=0;exitY=0.5;exitDx=0;exitDy=0;" parent="1" source="9LCu63V-QyvPk4SNTMz8-126" target="HBSDMx_5VC7ug6HWO6Sl-16" edge="1">
          <mxGeometry relative="1" as="geometry">
            <mxPoint x="1180" y="-280" as="sourcePoint" />
            <mxPoint x="1340" y="-280" as="targetPoint" />
          </mxGeometry>
        </mxCell>
        <mxCell id="9LCu63V-QyvPk4SNTMz8-130" value="1" style="resizable=0;html=1;whiteSpace=wrap;align=right;verticalAlign=bottom;" parent="9LCu63V-QyvPk4SNTMz8-129" connectable="0" vertex="1">
          <mxGeometry x="1" relative="1" as="geometry">
            <mxPoint x="20" y="28" as="offset" />
          </mxGeometry>
        </mxCell>
        <mxCell id="9LCu63V-QyvPk4SNTMz8-131" value="" style="endArrow=none;html=1;rounded=0;exitX=0.949;exitY=0.48;exitDx=0;exitDy=0;exitPerimeter=0;entryX=0;entryY=0.25;entryDx=0;entryDy=0;" parent="1" source="9LCu63V-QyvPk4SNTMz8-128" target="HBSDMx_5VC7ug6HWO6Sl-21" edge="1">
          <mxGeometry relative="1" as="geometry">
            <mxPoint x="1180" y="-280" as="sourcePoint" />
            <mxPoint x="1460" y="-240" as="targetPoint" />
          </mxGeometry>
        </mxCell>
        <mxCell id="9LCu63V-QyvPk4SNTMz8-132" value="1" style="resizable=0;html=1;whiteSpace=wrap;align=right;verticalAlign=bottom;" parent="9LCu63V-QyvPk4SNTMz8-131" connectable="0" vertex="1">
          <mxGeometry x="1" relative="1" as="geometry">
            <mxPoint x="-10" y="-10" as="offset" />
          </mxGeometry>
        </mxCell>
        <mxCell id="9LCu63V-QyvPk4SNTMz8-133" value="" style="endArrow=none;html=1;rounded=0;exitX=1;exitY=0.5;exitDx=0;exitDy=0;" parent="1" source="9LCu63V-QyvPk4SNTMz8-126" edge="1">
          <mxGeometry relative="1" as="geometry">
            <mxPoint x="1180" y="-280" as="sourcePoint" />
            <mxPoint x="1410" y="-430" as="targetPoint" />
          </mxGeometry>
        </mxCell>
        <mxCell id="9LCu63V-QyvPk4SNTMz8-134" value="1" style="resizable=0;html=1;whiteSpace=wrap;align=right;verticalAlign=bottom;" parent="9LCu63V-QyvPk4SNTMz8-133" connectable="0" vertex="1">
          <mxGeometry x="1" relative="1" as="geometry">
            <mxPoint x="-10" y="25" as="offset" />
          </mxGeometry>
        </mxCell>
        <mxCell id="9LCu63V-QyvPk4SNTMz8-136" value="" style="endArrow=none;html=1;rounded=0;entryX=0.5;entryY=0;entryDx=0;entryDy=0;exitX=-0.033;exitY=0.512;exitDx=0;exitDy=0;exitPerimeter=0;" parent="1" source="9LCu63V-QyvPk4SNTMz8-128" target="HBSDMx_5VC7ug6HWO6Sl-35" edge="1">
          <mxGeometry relative="1" as="geometry">
            <mxPoint x="1180" y="-280" as="sourcePoint" />
            <mxPoint x="1340" y="-280" as="targetPoint" />
          </mxGeometry>
        </mxCell>
        <mxCell id="9LCu63V-QyvPk4SNTMz8-137" value="1" style="resizable=0;html=1;whiteSpace=wrap;align=right;verticalAlign=bottom;" parent="9LCu63V-QyvPk4SNTMz8-136" connectable="0" vertex="1">
          <mxGeometry x="1" relative="1" as="geometry">
            <mxPoint x="15" as="offset" />
          </mxGeometry>
        </mxCell>
        <mxCell id="9LCu63V-QyvPk4SNTMz8-138" value="ghi_don" style="shape=rhombus;perimeter=rhombusPerimeter;whiteSpace=wrap;html=1;align=center;" parent="1" vertex="1">
          <mxGeometry x="790" y="-322" width="80" height="42" as="geometry" />
        </mxCell>
        <mxCell id="9LCu63V-QyvPk4SNTMz8-139" value="ghi_don" style="shape=rhombus;perimeter=rhombusPerimeter;whiteSpace=wrap;html=1;align=center;" parent="1" vertex="1">
          <mxGeometry x="790" y="-430" width="80" height="42" as="geometry" />
        </mxCell>
        <mxCell id="9LCu63V-QyvPk4SNTMz8-140" value="" style="endArrow=none;html=1;rounded=0;entryX=1;entryY=0.25;entryDx=0;entryDy=0;exitX=0;exitY=0.5;exitDx=0;exitDy=0;" parent="1" source="9LCu63V-QyvPk4SNTMz8-139" target="HBSDMx_5VC7ug6HWO6Sl-1" edge="1">
          <mxGeometry relative="1" as="geometry">
            <mxPoint x="650" y="-310" as="sourcePoint" />
            <mxPoint x="810" y="-310" as="targetPoint" />
          </mxGeometry>
        </mxCell>
        <mxCell id="9LCu63V-QyvPk4SNTMz8-141" value="1" style="resizable=0;html=1;whiteSpace=wrap;align=right;verticalAlign=bottom;" parent="9LCu63V-QyvPk4SNTMz8-140" connectable="0" vertex="1">
          <mxGeometry x="1" relative="1" as="geometry">
            <mxPoint x="60" y="-2" as="offset" />
          </mxGeometry>
        </mxCell>
        <mxCell id="9LCu63V-QyvPk4SNTMz8-142" value="" style="endArrow=none;html=1;rounded=0;entryX=1;entryY=0.75;entryDx=0;entryDy=0;exitX=0;exitY=0.5;exitDx=0;exitDy=0;" parent="1" source="9LCu63V-QyvPk4SNTMz8-138" target="HBSDMx_5VC7ug6HWO6Sl-1" edge="1">
          <mxGeometry relative="1" as="geometry">
            <mxPoint x="650" y="-310" as="sourcePoint" />
            <mxPoint x="810" y="-310" as="targetPoint" />
          </mxGeometry>
        </mxCell>
        <mxCell id="9LCu63V-QyvPk4SNTMz8-143" value="1" style="resizable=0;html=1;whiteSpace=wrap;align=right;verticalAlign=bottom;" parent="9LCu63V-QyvPk4SNTMz8-142" connectable="0" vertex="1">
          <mxGeometry x="1" relative="1" as="geometry">
            <mxPoint x="50" y="30" as="offset" />
          </mxGeometry>
        </mxCell>
        <mxCell id="9LCu63V-QyvPk4SNTMz8-146" value="" style="endArrow=none;html=1;rounded=0;entryX=0;entryY=1;entryDx=0;entryDy=0;exitX=1;exitY=0.5;exitDx=0;exitDy=0;" parent="1" source="9LCu63V-QyvPk4SNTMz8-139" target="HBSDMx_5VC7ug6HWO6Sl-16" edge="1">
          <mxGeometry relative="1" as="geometry">
            <mxPoint x="910" y="-290" as="sourcePoint" />
            <mxPoint x="1070" y="-290" as="targetPoint" />
          </mxGeometry>
        </mxCell>
        <mxCell id="9LCu63V-QyvPk4SNTMz8-147" value="N" style="resizable=0;html=1;whiteSpace=wrap;align=right;verticalAlign=bottom;" parent="9LCu63V-QyvPk4SNTMz8-146" connectable="0" vertex="1">
          <mxGeometry x="1" relative="1" as="geometry">
            <mxPoint y="16" as="offset" />
          </mxGeometry>
        </mxCell>
        <mxCell id="9LCu63V-QyvPk4SNTMz8-148" value="" style="endArrow=none;html=1;rounded=0;entryX=0;entryY=0;entryDx=0;entryDy=0;exitX=1;exitY=0.5;exitDx=0;exitDy=0;" parent="1" source="9LCu63V-QyvPk4SNTMz8-138" target="HBSDMx_5VC7ug6HWO6Sl-35" edge="1">
          <mxGeometry relative="1" as="geometry">
            <mxPoint x="910" y="-290" as="sourcePoint" />
            <mxPoint x="1070" y="-290" as="targetPoint" />
          </mxGeometry>
        </mxCell>
        <mxCell id="9LCu63V-QyvPk4SNTMz8-149" value="N" style="resizable=0;html=1;whiteSpace=wrap;align=right;verticalAlign=bottom;" parent="9LCu63V-QyvPk4SNTMz8-148" connectable="0" vertex="1">
          <mxGeometry x="1" relative="1" as="geometry" />
        </mxCell>
        <mxCell id="9LCu63V-QyvPk4SNTMz8-150" value="dat_don" style="shape=rhombus;perimeter=rhombusPerimeter;whiteSpace=wrap;html=1;align=center;" parent="1" vertex="1">
          <mxGeometry x="820" y="-600" width="90" height="40" as="geometry" />
        </mxCell>
        <mxCell id="9LCu63V-QyvPk4SNTMz8-151" value="cung_cap" style="shape=rhombus;perimeter=rhombusPerimeter;whiteSpace=wrap;html=1;align=center;" parent="1" vertex="1">
          <mxGeometry x="790" y="-130" width="80" height="40" as="geometry" />
        </mxCell>
        <mxCell id="9LCu63V-QyvPk4SNTMz8-152" value="" style="endArrow=none;html=1;rounded=0;entryX=0.864;entryY=0.011;entryDx=0;entryDy=0;entryPerimeter=0;exitX=0;exitY=0.5;exitDx=0;exitDy=0;" parent="1" source="9LCu63V-QyvPk4SNTMz8-150" target="HBSDMx_5VC7ug6HWO6Sl-56" edge="1">
          <mxGeometry relative="1" as="geometry">
            <mxPoint x="810" y="-460" as="sourcePoint" />
            <mxPoint x="970" y="-460" as="targetPoint" />
          </mxGeometry>
        </mxCell>
        <mxCell id="9LCu63V-QyvPk4SNTMz8-153" value="1" style="resizable=0;html=1;whiteSpace=wrap;align=right;verticalAlign=bottom;" parent="9LCu63V-QyvPk4SNTMz8-152" connectable="0" vertex="1">
          <mxGeometry x="1" relative="1" as="geometry">
            <mxPoint x="4" as="offset" />
          </mxGeometry>
        </mxCell>
        <mxCell id="9LCu63V-QyvPk4SNTMz8-154" value="" style="endArrow=none;html=1;rounded=0;entryX=0.335;entryY=0.029;entryDx=0;entryDy=0;entryPerimeter=0;exitX=1;exitY=0.5;exitDx=0;exitDy=0;" parent="1" source="9LCu63V-QyvPk4SNTMz8-150" target="HBSDMx_5VC7ug6HWO6Sl-16" edge="1">
          <mxGeometry relative="1" as="geometry">
            <mxPoint x="810" y="-460" as="sourcePoint" />
            <mxPoint x="970" y="-460" as="targetPoint" />
          </mxGeometry>
        </mxCell>
        <mxCell id="9LCu63V-QyvPk4SNTMz8-155" value="N" style="resizable=0;html=1;whiteSpace=wrap;align=right;verticalAlign=bottom;" parent="9LCu63V-QyvPk4SNTMz8-154" connectable="0" vertex="1">
          <mxGeometry x="1" relative="1" as="geometry">
            <mxPoint y="-13" as="offset" />
          </mxGeometry>
        </mxCell>
        <mxCell id="9LCu63V-QyvPk4SNTMz8-156" value="" style="endArrow=none;html=1;rounded=0;entryX=0.7;entryY=0.984;entryDx=0;entryDy=0;entryPerimeter=0;exitX=0;exitY=0.5;exitDx=0;exitDy=0;" parent="1" source="9LCu63V-QyvPk4SNTMz8-151" target="HBSDMx_5VC7ug6HWO6Sl-44" edge="1">
          <mxGeometry relative="1" as="geometry">
            <mxPoint x="810" y="-210" as="sourcePoint" />
            <mxPoint x="970" y="-210" as="targetPoint" />
          </mxGeometry>
        </mxCell>
        <mxCell id="9LCu63V-QyvPk4SNTMz8-157" value="1" style="resizable=0;html=1;whiteSpace=wrap;align=right;verticalAlign=bottom;" parent="9LCu63V-QyvPk4SNTMz8-156" connectable="0" vertex="1">
          <mxGeometry x="1" relative="1" as="geometry">
            <mxPoint x="8" y="29" as="offset" />
          </mxGeometry>
        </mxCell>
        <mxCell id="9LCu63V-QyvPk4SNTMz8-158" value="" style="endArrow=none;html=1;rounded=0;entryX=0.326;entryY=1.002;entryDx=0;entryDy=0;entryPerimeter=0;exitX=1;exitY=0.5;exitDx=0;exitDy=0;" parent="1" source="9LCu63V-QyvPk4SNTMz8-151" target="HBSDMx_5VC7ug6HWO6Sl-35" edge="1">
          <mxGeometry relative="1" as="geometry">
            <mxPoint x="810" y="-210" as="sourcePoint" />
            <mxPoint x="970" y="-210" as="targetPoint" />
          </mxGeometry>
        </mxCell>
        <mxCell id="9LCu63V-QyvPk4SNTMz8-159" value="N" style="resizable=0;html=1;whiteSpace=wrap;align=right;verticalAlign=bottom;" parent="9LCu63V-QyvPk4SNTMz8-158" connectable="0" vertex="1">
          <mxGeometry x="1" relative="1" as="geometry">
            <mxPoint y="25" as="offset" />
          </mxGeometry>
        </mxCell>
        <mxCell id="hi2KSllwmapPFdpa8jRz-1" value="don_ban_ct" style="ellipse;whiteSpace=wrap;html=1;align=center;" parent="1" vertex="1">
          <mxGeometry x="1090" y="-465" width="100" height="40" as="geometry" />
        </mxCell>
        <mxCell id="hi2KSllwmapPFdpa8jRz-4" value="" style="endArrow=none;html=1;rounded=0;" parent="1" source="HBSDMx_5VC7ug6HWO6Sl-16" target="hi2KSllwmapPFdpa8jRz-1" edge="1">
          <mxGeometry relative="1" as="geometry">
            <mxPoint x="960" y="-370" as="sourcePoint" />
            <mxPoint x="1120" y="-370" as="targetPoint" />
          </mxGeometry>
        </mxCell>
        <mxCell id="hi2KSllwmapPFdpa8jRz-5" value="don_mua_ct" style="ellipse;whiteSpace=wrap;html=1;align=center;" parent="1" vertex="1">
          <mxGeometry x="1095" y="-260" width="100" height="40" as="geometry" />
        </mxCell>
        <mxCell id="hi2KSllwmapPFdpa8jRz-6" value="" style="endArrow=none;html=1;rounded=0;" parent="1" source="HBSDMx_5VC7ug6HWO6Sl-35" target="hi2KSllwmapPFdpa8jRz-5" edge="1">
          <mxGeometry relative="1" as="geometry">
            <mxPoint x="1090" y="-330" as="sourcePoint" />
            <mxPoint x="1250" y="-330" as="targetPoint" />
          </mxGeometry>
        </mxCell>
        <mxCell id="hi2KSllwmapPFdpa8jRz-7" value="dia_chi" style="ellipse;whiteSpace=wrap;html=1;align=center;" parent="1" vertex="1">
          <mxGeometry x="600" y="-680" width="100" height="40" as="geometry" />
        </mxCell>
        <mxCell id="hi2KSllwmapPFdpa8jRz-8" value="" style="endArrow=none;html=1;rounded=0;" parent="1" source="hi2KSllwmapPFdpa8jRz-7" target="HBSDMx_5VC7ug6HWO6Sl-59" edge="1">
          <mxGeometry relative="1" as="geometry">
            <mxPoint x="580" y="-610" as="sourcePoint" />
            <mxPoint x="740" y="-610" as="targetPoint" />
          </mxGeometry>
        </mxCell>
        <mxCell id="hi2KSllwmapPFdpa8jRz-12" value="&lt;u&gt;ma_hang_hoa&lt;/u&gt;" style="ellipse;whiteSpace=wrap;html=1;align=center;" parent="1" vertex="1">
          <mxGeometry x="650" y="-45" width="100" height="40" as="geometry" />
        </mxCell>
        <mxCell id="hi2KSllwmapPFdpa8jRz-13" value="&lt;u&gt;id_ban_le&lt;/u&gt;" style="ellipse;whiteSpace=wrap;html=1;align=center;" parent="1" vertex="1">
          <mxGeometry x="650" y="125" width="100" height="40" as="geometry" />
        </mxCell>
        <mxCell id="hi2KSllwmapPFdpa8jRz-14" value="&lt;u&gt;ma_hang_hoa&lt;/u&gt;" style="ellipse;whiteSpace=wrap;html=1;align=center;" parent="1" vertex="1">
          <mxGeometry x="650" y="195" width="100" height="40" as="geometry" />
        </mxCell>
        <mxCell id="hi2KSllwmapPFdpa8jRz-15" value="&lt;u&gt;id_ban_si&lt;/u&gt;" style="ellipse;whiteSpace=wrap;html=1;align=center;" parent="1" vertex="1">
          <mxGeometry x="650" y="385" width="100" height="40" as="geometry" />
        </mxCell>
        <mxCell id="hi2KSllwmapPFdpa8jRz-18" value="" style="endArrow=none;html=1;rounded=0;exitX=0.5;exitY=0;exitDx=0;exitDy=0;" parent="1" source="hi2KSllwmapPFdpa8jRz-27" target="hi2KSllwmapPFdpa8jRz-12" edge="1">
          <mxGeometry relative="1" as="geometry">
            <mxPoint x="743.3333333333333" y="40" as="sourcePoint" />
            <mxPoint x="690" y="140" as="targetPoint" />
          </mxGeometry>
        </mxCell>
        <mxCell id="hi2KSllwmapPFdpa8jRz-19" value="" style="endArrow=none;html=1;rounded=0;entryX=0.5;entryY=1;entryDx=0;entryDy=0;" parent="1" source="hi2KSllwmapPFdpa8jRz-13" target="hi2KSllwmapPFdpa8jRz-27" edge="1">
          <mxGeometry relative="1" as="geometry">
            <mxPoint x="540" y="150" as="sourcePoint" />
            <mxPoint x="745" y="80" as="targetPoint" />
          </mxGeometry>
        </mxCell>
        <mxCell id="hi2KSllwmapPFdpa8jRz-20" value="" style="endArrow=none;html=1;rounded=0;entryX=0.5;entryY=1;entryDx=0;entryDy=0;exitX=0.5;exitY=0;exitDx=0;exitDy=0;" parent="1" source="hi2KSllwmapPFdpa8jRz-28" target="hi2KSllwmapPFdpa8jRz-14" edge="1">
          <mxGeometry relative="1" as="geometry">
            <mxPoint x="750" y="280" as="sourcePoint" />
            <mxPoint x="750" y="260" as="targetPoint" />
          </mxGeometry>
        </mxCell>
        <mxCell id="hi2KSllwmapPFdpa8jRz-21" value="" style="endArrow=none;html=1;rounded=0;entryX=0.5;entryY=1;entryDx=0;entryDy=0;" parent="1" source="hi2KSllwmapPFdpa8jRz-15" target="hi2KSllwmapPFdpa8jRz-28" edge="1">
          <mxGeometry relative="1" as="geometry">
            <mxPoint x="600" y="390" as="sourcePoint" />
            <mxPoint x="747.0600000000002" y="320" as="targetPoint" />
          </mxGeometry>
        </mxCell>
        <mxCell id="hi2KSllwmapPFdpa8jRz-26" value="" style="endArrow=none;html=1;rounded=0;" parent="1" source="HBSDMx_5VC7ug6HWO6Sl-4" target="HBSDMx_5VC7ug6HWO6Sl-2" edge="1">
          <mxGeometry relative="1" as="geometry">
            <mxPoint x="1030" y="355" as="sourcePoint" />
            <mxPoint x="1190" y="355" as="targetPoint" />
          </mxGeometry>
        </mxCell>
        <mxCell id="hi2KSllwmapPFdpa8jRz-27" value="HANG_HOA_BAN_LE" style="shape=rhombus;perimeter=rhombusPerimeter;whiteSpace=wrap;html=1;align=center;" parent="1" vertex="1">
          <mxGeometry x="625" y="25" width="150" height="70" as="geometry" />
        </mxCell>
        <mxCell id="hi2KSllwmapPFdpa8jRz-28" value="HANG_HOA_BAN_SI" style="shape=rhombus;perimeter=rhombusPerimeter;whiteSpace=wrap;html=1;align=center;" parent="1" vertex="1">
          <mxGeometry x="625" y="275" width="150" height="70" as="geometry" />
        </mxCell>
        <mxCell id="hi2KSllwmapPFdpa8jRz-29" value="" style="endArrow=none;html=1;rounded=0;exitX=1;exitY=0.5;exitDx=0;exitDy=0;entryX=0;entryY=0.5;entryDx=0;entryDy=0;" parent="1" source="HBSDMx_5VC7ug6HWO6Sl-68" target="hi2KSllwmapPFdpa8jRz-27" edge="1">
          <mxGeometry relative="1" as="geometry">
            <mxPoint x="580" y="210" as="sourcePoint" />
            <mxPoint x="740" y="210" as="targetPoint" />
          </mxGeometry>
        </mxCell>
        <mxCell id="hi2KSllwmapPFdpa8jRz-30" value="M" style="resizable=0;html=1;whiteSpace=wrap;align=left;verticalAlign=bottom;" parent="hi2KSllwmapPFdpa8jRz-29" connectable="0" vertex="1">
          <mxGeometry x="-1" relative="1" as="geometry">
            <mxPoint x="20" as="offset" />
          </mxGeometry>
        </mxCell>
        <mxCell id="hi2KSllwmapPFdpa8jRz-32" value="" style="endArrow=none;html=1;rounded=0;entryX=0;entryY=0.25;entryDx=0;entryDy=0;exitX=1;exitY=0.5;exitDx=0;exitDy=0;" parent="1" source="hi2KSllwmapPFdpa8jRz-27" target="HBSDMx_5VC7ug6HWO6Sl-2" edge="1">
          <mxGeometry relative="1" as="geometry">
            <mxPoint x="780" y="60" as="sourcePoint" />
            <mxPoint x="600" y="270" as="targetPoint" />
          </mxGeometry>
        </mxCell>
        <mxCell id="hi2KSllwmapPFdpa8jRz-34" value="N" style="resizable=0;html=1;whiteSpace=wrap;align=right;verticalAlign=bottom;" parent="hi2KSllwmapPFdpa8jRz-32" connectable="0" vertex="1">
          <mxGeometry x="1" relative="1" as="geometry">
            <mxPoint x="-30" y="-15" as="offset" />
          </mxGeometry>
        </mxCell>
        <mxCell id="hi2KSllwmapPFdpa8jRz-35" value="" style="endArrow=none;html=1;rounded=0;exitX=1;exitY=0.5;exitDx=0;exitDy=0;" parent="1" source="HBSDMx_5VC7ug6HWO6Sl-49" target="hi2KSllwmapPFdpa8jRz-28" edge="1">
          <mxGeometry relative="1" as="geometry">
            <mxPoint x="465" y="255" as="sourcePoint" />
            <mxPoint x="625" y="255" as="targetPoint" />
          </mxGeometry>
        </mxCell>
        <mxCell id="hi2KSllwmapPFdpa8jRz-36" value="M" style="resizable=0;html=1;whiteSpace=wrap;align=left;verticalAlign=bottom;" parent="hi2KSllwmapPFdpa8jRz-35" connectable="0" vertex="1">
          <mxGeometry x="-1" relative="1" as="geometry">
            <mxPoint x="20" as="offset" />
          </mxGeometry>
        </mxCell>
        <mxCell id="hi2KSllwmapPFdpa8jRz-38" value="" style="endArrow=none;html=1;rounded=0;entryX=0;entryY=0.75;entryDx=0;entryDy=0;exitX=1;exitY=0.5;exitDx=0;exitDy=0;" parent="1" source="hi2KSllwmapPFdpa8jRz-28" target="HBSDMx_5VC7ug6HWO6Sl-2" edge="1">
          <mxGeometry relative="1" as="geometry">
            <mxPoint x="580" y="210" as="sourcePoint" />
            <mxPoint x="740" y="210" as="targetPoint" />
          </mxGeometry>
        </mxCell>
        <mxCell id="hi2KSllwmapPFdpa8jRz-40" value="N" style="resizable=0;html=1;whiteSpace=wrap;align=right;verticalAlign=bottom;" parent="hi2KSllwmapPFdpa8jRz-38" connectable="0" vertex="1">
          <mxGeometry x="1" relative="1" as="geometry">
            <mxPoint x="-30" y="35" as="offset" />
          </mxGeometry>
        </mxCell>
        <mxCell id="hi2KSllwmapPFdpa8jRz-42" value="" style="endArrow=none;html=1;rounded=0;entryX=0.5;entryY=1;entryDx=0;entryDy=0;exitX=0.295;exitY=0.039;exitDx=0;exitDy=0;exitPerimeter=0;" parent="1" source="HBSDMx_5VC7ug6HWO6Sl-21" target="9LCu63V-QyvPk4SNTMz8-5" edge="1">
          <mxGeometry relative="1" as="geometry">
            <mxPoint x="1260" y="-180" as="sourcePoint" />
            <mxPoint x="1420" y="-180" as="targetPoint" />
          </mxGeometry>
        </mxCell>
        <mxCell id="hi2KSllwmapPFdpa8jRz-43" value="list_hh" style="shape=rhombus;perimeter=rhombusPerimeter;whiteSpace=wrap;html=1;align=center;" parent="1" vertex="1">
          <mxGeometry x="1250" y="-130" width="120" height="60" as="geometry" />
        </mxCell>
        <mxCell id="hi2KSllwmapPFdpa8jRz-44" value="list_hh" style="shape=rhombus;perimeter=rhombusPerimeter;whiteSpace=wrap;html=1;align=center;" parent="1" vertex="1">
          <mxGeometry x="1380" y="-10" width="120" height="60" as="geometry" />
        </mxCell>
        <mxCell id="hi2KSllwmapPFdpa8jRz-45" value="" style="endArrow=none;html=1;rounded=0;entryX=0.25;entryY=1;entryDx=0;entryDy=0;exitX=0.5;exitY=0;exitDx=0;exitDy=0;" parent="1" source="hi2KSllwmapPFdpa8jRz-43" target="HBSDMx_5VC7ug6HWO6Sl-39" edge="1">
          <mxGeometry relative="1" as="geometry">
            <mxPoint x="1430" y="-170" as="sourcePoint" />
            <mxPoint x="1590" y="-170" as="targetPoint" />
          </mxGeometry>
        </mxCell>
        <mxCell id="hi2KSllwmapPFdpa8jRz-46" value="N" style="resizable=0;html=1;whiteSpace=wrap;align=right;verticalAlign=bottom;" parent="hi2KSllwmapPFdpa8jRz-45" connectable="0" vertex="1">
          <mxGeometry x="1" relative="1" as="geometry">
            <mxPoint y="42" as="offset" />
          </mxGeometry>
        </mxCell>
        <mxCell id="hi2KSllwmapPFdpa8jRz-47" value="" style="endArrow=none;html=1;rounded=0;entryX=0.25;entryY=1;entryDx=0;entryDy=0;exitX=0.5;exitY=0;exitDx=0;exitDy=0;" parent="1" source="hi2KSllwmapPFdpa8jRz-44" target="HBSDMx_5VC7ug6HWO6Sl-21" edge="1">
          <mxGeometry relative="1" as="geometry">
            <mxPoint x="1430" y="-170" as="sourcePoint" />
            <mxPoint x="1590" y="-170" as="targetPoint" />
          </mxGeometry>
        </mxCell>
        <mxCell id="hi2KSllwmapPFdpa8jRz-48" value="N" style="resizable=0;html=1;whiteSpace=wrap;align=right;verticalAlign=bottom;" parent="hi2KSllwmapPFdpa8jRz-47" connectable="0" vertex="1">
          <mxGeometry x="1" relative="1" as="geometry">
            <mxPoint x="-13" y="30" as="offset" />
          </mxGeometry>
        </mxCell>
        <mxCell id="hi2KSllwmapPFdpa8jRz-49" value="" style="endArrow=none;html=1;rounded=0;entryX=1;entryY=0.75;entryDx=0;entryDy=0;exitX=0.5;exitY=1;exitDx=0;exitDy=0;" parent="1" source="hi2KSllwmapPFdpa8jRz-44" target="HBSDMx_5VC7ug6HWO6Sl-2" edge="1">
          <mxGeometry relative="1" as="geometry">
            <mxPoint x="1420" y="50" as="sourcePoint" />
            <mxPoint x="1580" y="50" as="targetPoint" />
          </mxGeometry>
        </mxCell>
        <mxCell id="hi2KSllwmapPFdpa8jRz-50" value="1" style="resizable=0;html=1;whiteSpace=wrap;align=right;verticalAlign=bottom;" parent="hi2KSllwmapPFdpa8jRz-49" connectable="0" vertex="1">
          <mxGeometry x="1" relative="1" as="geometry">
            <mxPoint x="40" as="offset" />
          </mxGeometry>
        </mxCell>
        <mxCell id="hi2KSllwmapPFdpa8jRz-51" value="" style="endArrow=none;html=1;rounded=0;entryX=0.92;entryY=-0.014;entryDx=0;entryDy=0;entryPerimeter=0;exitX=0.5;exitY=1;exitDx=0;exitDy=0;" parent="1" source="hi2KSllwmapPFdpa8jRz-43" target="HBSDMx_5VC7ug6HWO6Sl-2" edge="1">
          <mxGeometry relative="1" as="geometry">
            <mxPoint x="1420" y="50" as="sourcePoint" />
            <mxPoint x="1580" y="50" as="targetPoint" />
          </mxGeometry>
        </mxCell>
        <mxCell id="hi2KSllwmapPFdpa8jRz-52" value="1" style="resizable=0;html=1;whiteSpace=wrap;align=right;verticalAlign=bottom;" parent="hi2KSllwmapPFdpa8jRz-51" connectable="0" vertex="1">
          <mxGeometry x="1" relative="1" as="geometry">
            <mxPoint x="39" y="-19" as="offset" />
          </mxGeometry>
        </mxCell>
        <mxCell id="56mj2nl4RyN2bcZLLR8Y-1" value="DON_VI_TINH" style="whiteSpace=wrap;html=1;align=center;" vertex="1" parent="1">
          <mxGeometry x="465" y="145" width="100" height="40" as="geometry" />
        </mxCell>
        <mxCell id="56mj2nl4RyN2bcZLLR8Y-6" value="" style="endArrow=none;html=1;rounded=0;entryX=0;entryY=0.5;entryDx=0;entryDy=0;exitX=1;exitY=0.5;exitDx=0;exitDy=0;" edge="1" parent="1" source="56mj2nl4RyN2bcZLLR8Y-1" target="HBSDMx_5VC7ug6HWO6Sl-2">
          <mxGeometry relative="1" as="geometry">
            <mxPoint x="640" y="190" as="sourcePoint" />
            <mxPoint x="800" y="190" as="targetPoint" />
          </mxGeometry>
        </mxCell>
        <mxCell id="56mj2nl4RyN2bcZLLR8Y-7" value="1" style="resizable=0;html=1;whiteSpace=wrap;align=left;verticalAlign=bottom;" connectable="0" vertex="1" parent="56mj2nl4RyN2bcZLLR8Y-6">
          <mxGeometry x="-1" relative="1" as="geometry">
            <mxPoint x="15" y="-5" as="offset" />
          </mxGeometry>
        </mxCell>
        <mxCell id="56mj2nl4RyN2bcZLLR8Y-8" value="N" style="resizable=0;html=1;whiteSpace=wrap;align=right;verticalAlign=bottom;" connectable="0" vertex="1" parent="56mj2nl4RyN2bcZLLR8Y-6">
          <mxGeometry x="1" relative="1" as="geometry" />
        </mxCell>
      </root>
    </mxGraphModel>
  </diagram>
</mxfile>
